<svg width="139" height="33" viewBox="0 0 139 33" fill="none" xmlns="http://www.w3.org/2000/svg">
<path d="M9.43359 11.6445C8.06641 11.6445 7.00781 12.1602 6.25781 13.1914C5.50781 14.2148 5.13281 15.6445 5.13281 17.4805C5.13281 21.3008 6.56641 23.2109 9.43359 23.2109C10.6367 23.2109 12.0938 22.9102 13.8047 22.3086V25.3555C12.3984 25.9414 10.8281 26.2344 9.09375 26.2344C6.60156 26.2344 4.69531 25.4805 3.375 23.9727C2.05469 22.457 1.39453 20.2852 1.39453 17.457C1.39453 15.6758 1.71875 14.1172 2.36719 12.7812C3.01562 11.4375 3.94531 10.4102 5.15625 9.69922C6.375 8.98047 7.80078 8.62109 9.43359 8.62109C11.0977 8.62109 12.7695 9.02344 14.4492 9.82812L13.2773 12.7812C12.6367 12.4766 11.9922 12.2109 11.3438 11.9844C10.6953 11.7578 10.0586 11.6445 9.43359 11.6445ZM21.0938 16.4727H22.2656C23.4141 16.4727 24.2617 16.2812 24.8086 15.8984C25.3555 15.5156 25.6289 14.9141 25.6289 14.0938C25.6289 13.2812 25.3477 12.7031 24.7852 12.3594C24.2305 12.0156 23.3672 11.8438 22.1953 11.8438H21.0938V16.4727ZM21.0938 19.4258V26H17.4609V8.86719H22.4531C24.7812 8.86719 26.5039 9.29297 27.6211 10.1445C28.7383 10.9883 29.2969 12.2734 29.2969 14C29.2969 15.0078 29.0195 15.9062 28.4648 16.6953C27.9102 17.4766 27.125 18.0898 26.1094 18.5352C28.6875 22.3867 30.3672 24.875 31.1484 26H27.1172L23.0273 19.4258H21.0938ZM33.3047 26V8.86719H36.9375V26H33.3047ZM51.3633 21.2422C51.3633 22.7891 50.8047 24.0078 49.6875 24.8984C48.5781 25.7891 47.0312 26.2344 45.0469 26.2344C43.2188 26.2344 41.6016 25.8906 40.1953 25.2031V21.8281C41.3516 22.3438 42.3281 22.707 43.125 22.918C43.9297 23.1289 44.6641 23.2344 45.3281 23.2344C46.125 23.2344 46.7344 23.082 47.1562 22.7773C47.5859 22.4727 47.8008 22.0195 47.8008 21.418C47.8008 21.082 47.707 20.7852 47.5195 20.5273C47.332 20.2617 47.0547 20.0078 46.6875 19.7656C46.3281 19.5234 45.5898 19.1367 44.4727 18.6055C43.4258 18.1133 42.6406 17.6406 42.1172 17.1875C41.5938 16.7344 41.1758 16.207 40.8633 15.6055C40.5508 15.0039 40.3945 14.3008 40.3945 13.4961C40.3945 11.9805 40.9062 10.7891 41.9297 9.92188C42.9609 9.05469 44.3828 8.62109 46.1953 8.62109C47.0859 8.62109 47.9336 8.72656 48.7383 8.9375C49.5508 9.14844 50.3984 9.44531 51.2812 9.82812L50.1094 12.6523C49.1953 12.2773 48.4375 12.0156 47.8359 11.8672C47.2422 11.7188 46.6562 11.6445 46.0781 11.6445C45.3906 11.6445 44.8633 11.8047 44.4961 12.125C44.1289 12.4453 43.9453 12.8633 43.9453 13.3789C43.9453 13.6992 44.0195 13.9805 44.168 14.2227C44.3164 14.457 44.5508 14.6875 44.8711 14.9141C45.1992 15.1328 45.9688 15.5312 47.1797 16.1094C48.7812 16.875 49.8789 17.6445 50.4727 18.418C51.0664 19.1836 51.3633 20.125 51.3633 21.2422ZM70.0195 17.4102C70.0195 20.2461 69.3164 22.4258 67.9102 23.9492C66.5039 25.4727 64.4883 26.2344 61.8633 26.2344C59.2383 26.2344 57.2227 25.4727 55.8164 23.9492C54.4102 22.4258 53.707 20.2383 53.707 17.3867C53.707 14.5352 54.4102 12.3594 55.8164 10.8594C57.2305 9.35156 59.2539 8.59766 61.8867 8.59766C64.5195 8.59766 66.5312 9.35547 67.9219 10.8711C69.3203 12.3867 70.0195 14.5664 70.0195 17.4102ZM57.5156 17.4102C57.5156 19.3242 57.8789 20.7656 58.6055 21.7344C59.332 22.7031 60.418 23.1875 61.8633 23.1875C64.7617 23.1875 66.2109 21.2617 66.2109 17.4102C66.2109 13.5508 64.7695 11.6211 61.8867 11.6211C60.4414 11.6211 59.3516 12.1094 58.6172 13.0859C57.8828 14.0547 57.5156 15.4961 57.5156 17.4102ZM73.5703 26V8.86719H77.2031V23H84.1523V26H73.5703ZM108.199 17.2695C108.199 20.0898 107.395 22.25 105.785 23.75C104.184 25.25 101.867 26 98.8359 26H93.9844V8.86719H99.3633C102.16 8.86719 104.332 9.60547 105.879 11.082C107.426 12.5586 108.199 14.6211 108.199 17.2695ZM104.426 17.3633C104.426 13.6836 102.801 11.8438 99.5508 11.8438H97.6172V23H99.1758C102.676 23 104.426 21.1211 104.426 17.3633ZM121.617 26H111.75V8.86719H121.617V11.8438H115.383V15.6055H121.184V18.582H115.383V23H121.617V26ZM134.977 8.86719H138.645L132.82 26H128.859L123.047 8.86719H126.715L129.938 19.0625C130.117 19.6641 130.301 20.3672 130.488 21.1719C130.684 21.9688 130.805 22.5234 130.852 22.8359C130.938 22.1172 131.23 20.8594 131.73 19.0625L134.977 8.86719Z" fill="white"/>
<path d="M86.3555 24.3242C86.3555 23.668 86.5312 23.1719 86.8828 22.8359C87.2344 22.5 87.7461 22.332 88.418 22.332C89.0664 22.332 89.5664 22.5039 89.918 22.8477C90.2773 23.1914 90.457 23.6836 90.457 24.3242C90.457 24.9414 90.2773 25.4297 89.918 25.7891C89.5586 26.1406 89.0586 26.3164 88.418 26.3164C87.7617 26.3164 87.2539 26.1445 86.8945 25.8008C86.5352 25.4492 86.3555 24.957 86.3555 24.3242Z" fill="#FCE38A"/>
<rect x="2" y="30" width="82" height="1" fill="#F38181"/>
<rect x="94" y="30" width="45" height="1" fill="#95E1D3"/>
<rect x="81" y="30" width="16" height="1" fill="#FCE38A"/>
</svg>
