<svg width="72" height="36" viewBox="0 0 72 36" fill="none" xmlns="http://www.w3.org/2000/svg">
<path d="M10.716 33.308C8.57467 33.308 6.69733 32.8387 5.084 31.9C3.5 30.9613 2.268 29.6413 1.388 27.94C0.537333 26.2093 0.112 24.2 0.112 21.912C0.112 19.624 0.552 17.6147 1.432 15.884C2.312 14.124 3.55867 12.76 5.172 11.792C6.81467 10.824 8.72133 10.34 10.892 10.34C12.388 10.34 13.8253 10.604 15.204 11.132C16.612 11.6307 17.7707 12.3347 18.68 13.244L17.492 15.884C16.3773 15.004 15.292 14.3587 14.236 13.948C13.2093 13.5373 12.1533 13.332 11.068 13.332C8.80933 13.332 7.03467 14.0947 5.744 15.62C4.45333 17.116 3.808 19.2133 3.808 21.912C3.808 24.5813 4.43867 26.664 5.7 28.16C6.99067 29.6267 8.78 30.36 11.068 30.36C12.1533 30.36 13.2093 30.1547 14.236 29.744C15.292 29.3333 16.3773 28.688 17.492 27.808L18.68 30.448C17.7413 31.328 16.5533 32.032 15.116 32.56C13.708 33.0587 12.2413 33.308 10.716 33.308ZM42.7092 0.615997V33H39.1892V28.996C38.5438 30.3747 37.5612 31.4453 36.2412 32.208C34.9505 32.9413 33.4398 33.308 31.7092 33.308C29.7732 33.308 28.0572 32.824 26.5612 31.856C25.0945 30.888 23.9505 29.5387 23.1292 27.808C22.3078 26.048 21.8972 24.024 21.8972 21.736C21.8972 19.448 22.2932 17.4533 23.0852 15.752C23.9065 14.0213 25.0652 12.6867 26.5612 11.748C28.0572 10.8093 29.7732 10.34 31.7092 10.34C33.4398 10.34 34.9505 10.7213 36.2412 11.484C37.5318 12.2173 38.4998 13.2587 39.1452 14.608V0.615997H42.7092ZM32.4132 30.36C34.5838 30.36 36.2558 29.6267 37.4292 28.16C38.6025 26.664 39.1892 24.552 39.1892 21.824C39.1892 19.1253 38.6025 17.0427 37.4292 15.576C36.2558 14.08 34.5838 13.332 32.4132 13.332C30.2425 13.332 28.5412 14.0653 27.3092 15.532C26.1065 16.9987 25.5052 19.0667 25.5052 21.736C25.5052 24.464 26.1065 26.5907 27.3092 28.116C28.5412 29.612 30.2425 30.36 32.4132 30.36Z" fill="#595959"/>
<path d="M54.4286 28.468V33H49.8966V28.468H54.4286ZM57.1649 35.42L68.4729 0.0439994H71.7729L60.4209 35.42H57.1649Z" fill="#95E1D3"/>
</svg>
